<svg id="Layer_2" data-name="Layer 2" xmlns="http://www.w3.org/2000/svg" width="28" height="28" viewBox="0 0 23.52 21.02">
                <defs>
                  <style>
                    .cls-1 {
                      fill: #1a2024;
                      stroke-width: 0px;
                    }
                  </style>
                </defs>
                <g id="Layer_1-2" data-name="Layer 1">
                  <path class="cls-1" d="M23.22,7.68s0-.01-.02-.02l-.38-.28L13.38.52c-.97-.7-2.27-.7-3.24,0L2.11,6.36l-1.79,1.3c-.34.24-.42.71-.19,1.05.24.34.71.42,1.05.18,0,0,.01,0,.02,0l.91-.66.9-.66v10.71c0,1.52,1.23,2.75,2.75,2.75h12c1.52,0,2.75-1.23,2.75-2.75V7.57l1.81,1.32c.15.11.33.16.5.14.21,0,.41-.1.55-.29.25-.33.18-.8-.15-1.05ZM14.01,19.52h-4.5v-6.25c0-.69.56-1.25,1.25-1.25h2c.69,0,1.25.56,1.25,1.25v6.25Z"/>
                </g>
              </svg>